<svg width="495" height="530" viewBox="0 0 495 530" fill="none" xmlns="http://www.w3.org/2000/svg">
<g clip-path="url(#clip0_24_453)">
<path d="M199 132.44C202.64 132.52 207.42 134.58 209.83 137.35C229.97 171.08 246.69 207.93 266.86 241.5C272.25 250.47 274.66 254.75 283.74 260.56C317.46 282.12 358.01 298.38 392.24 319.77C400.88 329.68 398.25 337.91 387.84 344.69C356.25 365.25 317.1 380.62 284.82 400.68C273.78 407.54 272.18 411.03 265.76 421.92C246.49 454.59 230.22 489.22 211.31 522.12C205.48 531.38 193.21 532.29 186.62 523.21C165.55 489.18 149.39 448.7 127.82 415.38C121.29 405.29 116.53 403.23 106.59 397.41C73.8702 378.23 39.2602 361.92 6.39018 342.96C-2.73982 335.92 -1.85982 324.72 7.48018 318.27C37.6902 297.41 78.9902 281.52 110.95 261.65C122.06 254.74 124.44 251.5 131.1 240.41C150.86 207.52 167.24 171.47 187.08 138.47C189.9 134.44 194.05 132.33 199 132.44Z" fill="#D6D800"/>
<path d="M390.92 0.349942C396.31 -0.630058 400.98 0.379942 404.76 4.50994L435.81 59.4999C450.91 70.5499 474.82 77.9999 489.16 88.9199C497.64 95.3699 496.19 106.65 488.07 112.75C473.24 123.88 449.96 130.6 434.76 142.21L404.76 196.07C399.38 202.19 388.43 202.27 383.09 196.09L352.06 141.08C337.51 130.26 312.14 122.53 298.68 111.69C293.24 107.3 291.96 99.3799 295.54 93.3799C300.21 85.5399 336.11 69.8299 346.2 63.4499C361.81 53.5799 370.36 22.7399 381.59 7.35994C383.99 4.06994 386.76 1.12994 390.93 0.369942L390.92 0.349942Z" fill="#D6D800"/>
</g>
<defs>
<clipPath id="clip0_24_453">
<rect width="494.88" height="529.56" fill="white"/>
</clipPath>
</defs>
</svg>
