<svg width="21" height="21" viewBox="0 0 21 21" fill="none" xmlns="http://www.w3.org/2000/svg">
<g clip-path="url(#clip0_17_177)">
<path d="M17.7814 4.41923C16.5067 3.83432 15.1397 3.40339 13.7105 3.15658C13.6845 3.15182 13.6585 3.16372 13.6451 3.18753C13.4693 3.50021 13.2745 3.90813 13.1382 4.22875C11.6009 3.99861 10.0716 3.99861 8.56585 4.22875C8.42946 3.901 8.22766 3.50021 8.05107 3.18753C8.03766 3.16452 8.01166 3.15261 7.98563 3.15658C6.55718 3.40261 5.19022 3.83354 3.9147 4.41923C3.90366 4.42399 3.89419 4.43193 3.88791 4.44224C1.29508 8.31587 0.584794 12.0943 0.933236 15.8259C0.934813 15.8441 0.945061 15.8616 0.959251 15.8727C2.66993 17.129 4.32701 17.8916 5.95332 18.3972C5.97935 18.4051 6.00692 18.3956 6.02349 18.3742C6.40819 17.8488 6.75112 17.2949 7.04515 16.7123C7.0625 16.6782 7.04594 16.6377 7.01047 16.6242C6.46653 16.4179 5.94859 16.1663 5.45036 15.8806C5.41095 15.8576 5.4078 15.8013 5.44405 15.7743C5.5489 15.6957 5.65377 15.614 5.75388 15.5314C5.77199 15.5164 5.79723 15.5132 5.81853 15.5227C9.09166 17.0171 12.6352 17.0171 15.8697 15.5227C15.891 15.5124 15.9162 15.5156 15.9352 15.5306C16.0353 15.6132 16.1401 15.6957 16.2458 15.7743C16.282 15.8013 16.2797 15.8576 16.2402 15.8806C15.742 16.1719 15.2241 16.4179 14.6793 16.6235C14.6439 16.6369 14.6281 16.6782 14.6455 16.7123C14.9458 17.294 15.2887 17.848 15.6663 18.3734C15.6821 18.3956 15.7105 18.4051 15.7365 18.3972C17.3707 17.8916 19.0278 17.129 20.7384 15.8727C20.7534 15.8616 20.7629 15.8449 20.7645 15.8267C21.1815 11.5126 20.066 7.76511 17.8074 4.44303C17.8019 4.43193 17.7925 4.42399 17.7814 4.41923ZM7.53394 13.5537C6.5485 13.5537 5.73653 12.649 5.73653 11.538C5.73653 10.4269 6.53276 9.52218 7.53394 9.52218C8.54298 9.52218 9.34709 10.4348 9.33132 11.538C9.33132 12.649 8.53509 13.5537 7.53394 13.5537ZM14.1795 13.5537C13.1941 13.5537 12.3822 12.649 12.3822 11.538C12.3822 10.4269 13.1784 9.52218 14.1795 9.52218C15.1886 9.52218 15.9927 10.4348 15.977 11.538C15.977 12.649 15.1886 13.5537 14.1795 13.5537Z" fill="white"/>
</g>
<defs>
<clipPath id="clip0_17_177">
<rect width="20" height="20" fill="none" transform="translate(0.850586 0.956238)"/>
</clipPath>
</defs>
</svg>
