<svg width="19" height="19" viewBox="0 0 19 19" fill="none" xmlns="http://www.w3.org/2000/svg">
<g clip-path="url(#clip0_17_172)">
<path d="M9.84253 2.57694C12.2472 2.57694 12.532 2.58749 13.4777 2.62968C14.3566 2.66835 14.8312 2.816 15.1476 2.93905C15.566 3.10077 15.8683 3.29764 16.1812 3.61053C16.4976 3.92694 16.691 4.22577 16.8527 4.64413C16.9757 4.96053 17.1234 5.43866 17.1621 6.31405C17.2042 7.26327 17.2148 7.54803 17.2148 9.94921C17.2148 12.3539 17.2042 12.6387 17.1621 13.5844C17.1234 14.4633 16.9757 14.9379 16.8527 15.2543C16.691 15.6726 16.4941 15.975 16.1812 16.2879C15.8648 16.6043 15.566 16.7976 15.1476 16.9594C14.8312 17.0824 14.3531 17.2301 13.4777 17.2687C12.5285 17.3109 12.2437 17.3215 9.84253 17.3215C7.43784 17.3215 7.15308 17.3109 6.20737 17.2687C5.32847 17.2301 4.85386 17.0824 4.53745 16.9594C4.11909 16.7976 3.81675 16.6008 3.50386 16.2879C3.18745 15.9715 2.99409 15.6726 2.83237 15.2543C2.70933 14.9379 2.56167 14.4598 2.523 13.5844C2.48081 12.6351 2.47026 12.3504 2.47026 9.94921C2.47026 7.54452 2.48081 7.25975 2.523 6.31405C2.56167 5.43514 2.70933 4.96053 2.83237 4.64413C2.99409 4.22577 3.19097 3.92342 3.50386 3.61053C3.82026 3.29413 4.11909 3.10077 4.53745 2.93905C4.85386 2.816 5.33198 2.66835 6.20737 2.62968C7.15308 2.58749 7.43784 2.57694 9.84253 2.57694ZM9.84253 0.956238C7.39917 0.956238 7.09331 0.966785 6.13355 1.00897C5.1773 1.05116 4.51987 1.20585 3.95034 1.42733C3.3562 1.65936 2.85347 1.96522 2.35425 2.46796C1.85151 2.96718 1.54565 3.46991 1.31362 4.06053C1.09214 4.63358 0.937451 5.28749 0.895264 6.24374C0.853076 7.20702 0.842529 7.51288 0.842529 9.95624C0.842529 12.3996 0.853076 12.7055 0.895264 13.6652C0.937451 14.6215 1.09214 15.2789 1.31362 15.8484C1.54565 16.4426 1.85151 16.9453 2.35425 17.4445C2.85347 17.9437 3.3562 18.2531 3.94683 18.4816C4.51987 18.7031 5.17378 18.8578 6.13003 18.9C7.0898 18.9422 7.39565 18.9527 9.83901 18.9527C12.2824 18.9527 12.5882 18.9422 13.548 18.9C14.5042 18.8578 15.1617 18.7031 15.7312 18.4816C16.3218 18.2531 16.8246 17.9437 17.3238 17.4445C17.823 16.9453 18.1324 16.4426 18.3609 15.8519C18.5824 15.2789 18.7371 14.625 18.7792 13.6687C18.8214 12.709 18.832 12.4031 18.832 9.95975C18.832 7.51639 18.8214 7.21053 18.7792 6.25077C18.7371 5.29452 18.5824 4.6371 18.3609 4.06757C18.1394 3.46991 17.8335 2.96718 17.3308 2.46796C16.8316 1.96874 16.3289 1.65936 15.7382 1.43085C15.1652 1.20936 14.5113 1.05468 13.555 1.01249C12.5917 0.966785 12.2859 0.956238 9.84253 0.956238Z" fill="white"/>
<path d="M9.84253 5.33319C7.29019 5.33319 5.21948 7.40389 5.21948 9.95624C5.21948 12.5086 7.29019 14.5793 9.84253 14.5793C12.3949 14.5793 14.4656 12.5086 14.4656 9.95624C14.4656 7.40389 12.3949 5.33319 9.84253 5.33319ZM9.84253 12.9551C8.18667 12.9551 6.8437 11.6121 6.8437 9.95624C6.8437 8.30038 8.18667 6.95741 9.84253 6.95741C11.4984 6.95741 12.8414 8.30038 12.8414 9.95624C12.8414 11.6121 11.4984 12.9551 9.84253 12.9551Z" fill="white"/>
<path d="M15.7277 5.15034C15.7277 5.748 15.2425 6.22964 14.6484 6.22964C14.0507 6.22964 13.5691 5.74448 13.5691 5.15034C13.5691 4.55269 14.0542 4.07104 14.6484 4.07104C15.2425 4.07104 15.7277 4.5562 15.7277 5.15034Z" fill="white"/>
</g>
<defs>
<clipPath id="clip0_17_172">
<rect width="18" height="18" fill="white" transform="translate(0.842529 0.956238)"/>
</clipPath>
</defs>
</svg>
