<svg width="20" height="21" viewBox="0 0 20 21" fill="none" xmlns="http://www.w3.org/2000/svg">
<path d="M9.96934 0.956238C4.46351 0.956238 -6.10352e-05 5.41969 -6.10352e-05 10.9255C-6.10352e-05 16.4316 4.46351 20.8947 9.96934 20.8947C15.4758 20.8947 19.9389 16.4316 19.9389 10.9255C19.9389 5.42005 15.4758 0.956714 9.96922 0.956714L9.96934 0.956238ZM14.5412 15.3348C14.3627 15.6277 13.9793 15.7205 13.6865 15.5408C11.3458 14.111 8.39911 13.7872 4.92887 14.58C4.59446 14.6562 4.26113 14.4467 4.18494 14.1122C4.10839 13.7777 4.31708 13.4443 4.65232 13.3681C8.44994 12.5002 11.7074 12.8741 14.3353 14.48C14.6282 14.6598 14.721 15.042 14.5412 15.3348ZM15.7615 12.6199C15.5365 12.986 15.0579 13.1015 14.6924 12.8765C12.0127 11.229 7.9278 10.752 4.75815 11.7141C4.34708 11.8383 3.91292 11.6066 3.78815 11.1962C3.66434 10.7852 3.89613 10.3518 4.30649 10.2268C7.92708 9.12826 12.4282 9.6604 15.5055 11.5515C15.871 11.7765 15.9865 12.2549 15.7615 12.6199ZM15.8662 9.79326C12.6532 7.88481 7.35196 7.70933 4.28422 8.6404C3.79161 8.78981 3.27065 8.51171 3.12137 8.01909C2.97208 7.52624 3.24994 7.00564 3.74292 6.85588C7.26446 5.78683 13.1186 5.99338 16.8179 8.18945C17.262 8.45243 17.4072 9.02469 17.1441 9.46719C16.8822 9.91028 16.3084 10.0564 15.8667 9.79326H15.8662Z" fill="white"/>
</svg>
