<svg width="22" height="17" viewBox="0 0 22 17" fill="none" xmlns="http://www.w3.org/2000/svg">
<path fill-rule="evenodd" clip-rule="evenodd" d="M21.8505 2.85075C21.0775 3.17275 20.2465 3.38775 19.3755 3.48575C20.2655 2.98575 20.9485 2.19375 21.2705 1.25175C20.4365 1.71375 19.5145 2.04975 18.5325 2.23175C17.7475 1.44575 16.6265 0.95575 15.3875 0.95575C13.0075 0.95575 11.0765 2.76475 11.0765 4.99475C11.0765 5.31175 11.1145 5.62075 11.1885 5.91575C7.60653 5.74675 4.43053 4.13875 2.30453 1.69575C1.93353 2.29275 1.72153 2.98575 1.72153 3.72675C1.72153 5.12675 2.48253 6.36475 3.63853 7.08875C2.93253 7.06675 2.26853 6.88575 1.68653 6.58275C1.68653 6.60075 1.68653 6.61575 1.68653 6.63475C1.68653 8.59175 3.17153 10.2237 5.14353 10.5947C4.78253 10.6867 4.40053 10.7347 4.00853 10.7347C3.73053 10.7347 3.46053 10.7107 3.19753 10.6647C3.74553 12.2677 5.33753 13.4367 7.22353 13.4697C5.74853 14.5527 3.89053 15.1977 1.87053 15.1977C1.52253 15.1977 1.17953 15.1787 0.842529 15.1417C2.74953 16.2867 5.01553 16.9567 7.44953 16.9567C15.3775 16.9567 19.7125 10.8007 19.7125 5.46375C19.7125 5.28775 19.7075 5.11475 19.6995 4.94075C20.5415 4.37075 21.2725 3.65975 21.8505 2.85075Z" fill="white"/>
</svg>
