<svg width="20" height="20" viewBox="0 0 20 20" fill="none" xmlns="http://www.w3.org/2000/svg">
<path d="M19.9999 13.819L17.4462 16.3239H11.0634L8.5097 19.0388H6.16986V15.28H0.850525V3.17059L2.97845 0.873718H19.9999V13.819ZM4.04193 2.54462C3.80792 2.54462 3.61621 2.73198 3.61615 2.96161V13.1921C3.61615 13.4217 3.80789 13.61 4.04193 13.61H7.44623V15.489C7.44623 15.6455 7.53114 15.787 7.67474 15.86C7.73857 15.8914 7.80286 15.9069 7.87201 15.9069C7.95702 15.9069 8.0422 15.8806 8.11127 15.8337L11.4091 13.61H15.3183C15.43 13.61 15.5422 13.5682 15.622 13.4899L17.9619 11.1931C18.0415 11.1148 18.0848 11.0109 18.0849 10.8962V2.96161C18.0848 2.73204 17.893 2.54471 17.6591 2.54462H4.04193Z" fill="white"/>
<path d="M13.8292 9.95628V5.78046H12.1271V9.95628H13.8292ZM9.57389 9.95628V5.78046H7.87177V9.95628H9.57389Z" fill="white"/>
</svg>
