<?xml version="1.0" encoding="utf-8"?>
<svg width="118" height="69.776" viewBox="0 0 118 69.776" fill="none" xmlns="http://www.w3.org/2000/svg">
  <g>
    <rect width="118" height="69.776" />
    <g>
      <g>
        <path d="M22.5211 14.9369L17.586 14.9369L17.586 7.32547L11.261 15.2519L11.2937 15.291L11.2937 15.2928L11.2601 15.2928L11.2601 15.2519L4.93509 7.32547L4.93509 14.9369L0 14.9369L0 0L4.93509 0L11.2601 7.87108L17.586 0L22.5211 0L22.5211 14.9369Z" fill="#FFFFFF" transform="translate(75.372 0)" />
        <path d="M6.26782 12.6246L5.27099 14.936L0 14.936L6.44122 0L11.9891 0L18.4294 14.9369L13.1584 14.9369L12.1616 12.6255L12.1616 12.6246L6.26782 12.6246ZM9.21471 5.79029L8.10894 8.35406L10.3205 8.35406L9.21471 5.79029Z" fill="#FFFFFF" transform="translate(99.571 0.025)" />
        <path d="M22.5211 14.9369L17.586 14.9369L4.93509 7.32456L4.93509 14.936L0 14.936L0 0L4.93509 0L17.586 7.32456L17.586 0L22.5211 0L22.5211 14.9369Z" fill="#FFFFFF" transform="translate(75.372 18.269)" />
        <path d="M6.26782 12.6255L5.27099 14.9369L0 14.9369L6.4403 0L11.9882 0L18.4285 14.9369L13.1575 14.9369L12.1607 12.6255L12.1616 12.6255L6.26782 12.6255ZM9.21471 5.79029L8.10894 8.35406L10.3205 8.35406L9.21471 5.79029Z" fill="#FFFFFF" transform="translate(99.571 18.269)" />
        <path d="M21.6605 14.9369L15.3672 14.9369L13.6786 10.5057L11.9882 14.9369L5.69496 14.9369L0 0L6.09351 0L8.84158 7.20745L10.631 2.51384L11.5897 0L15.7667 0L16.7245 2.51384L18.5138 7.20745L21.2628 0L27.3563 0L27.3554 0L21.6605 14.9369Z" fill="#FFFFFF" transform="translate(75.372 36.512)" />
        <path d="M0 0L5.7122 0L5.7122 14.9369L0 14.9369L0 0Z" fill="#FFFFFF" transform="translate(105.929 36.512)" />
        <path d="M10.0708 5.10304L17.4998 7.49614C20.4775 8.39764 22.5266 9.16205 22.5266 11.2165L22.5266 12.1952L22.5157 12.1925C22.5229 12.256 22.5266 12.3205 22.5266 12.3858C22.5266 13.7948 20.9832 14.9369 19.0794 14.9369L3.44712 14.9369C1.54335 14.9369 0 13.7948 0 12.3858L0 9.83386L10.7136 9.83386C10.7136 9.83386 0 5.88742 0 4.24693L0 2.79891L0.0163498 2.80345C0.00545502 2.72084 0 2.6364 0 2.55197C0 1.14299 1.54335 0 3.44712 0L19.0794 0C20.9832 0 22.5266 1.14208 22.5266 2.55197L22.5266 5.10395L22.5266 5.10304L10.0708 5.10304Z" fill="#FFFFFF" transform="translate(75.372 54.756)" />
        <path d="M7.03404 5.45528L17.0014 5.45528L17.0014 9.4798L7.03404 9.4798L7.03404 10.9124L17.0014 10.9124L17.0014 14.9369L0 14.9369L0 0L17.0014 0L17.0014 4.02451L7.03404 4.02451L7.03404 4.02361L7.03404 5.45528Z" fill="#FFFFFF" transform="translate(100.285 54.756)" />
        <g>
          <g>
            <path d="M31.261 4.15978C31.8547 4.12892 32.4358 4.33863 32.8752 4.73899C37.2619 8.73445 38.2506 14.4149 38.2506 14.4149C33.4017 16.0427 29.6632 11.369 29.6632 11.369L28.236 12.877C30.4666 16.1235 39.0567 30.0372 39.0567 30.0372C41.1729 29.7758 45.3237 30.3078 48.8007 30.8752L48.8007 4.15434C48.8007 1.86019 46.9405 0 44.6464 0L4.15434 0C1.86019 0 0 1.86019 0 4.15434L0 37.9555L8.46845 34.6173C6.44848 29.9646 14.6636 10.8162 19.9401 7.43622C24.0626 4.79528 29.2084 4.26509 31.261 4.15978Z" fill="#FFFFFF" transform="translate(11.793 0)" />
            <g transform="translate(11.794 42.669)">
              <path d="M6.47662 4.33046C9.00318 4.12074 11.0522 2.43668 11.852 0.195188C8.17976 0.390376 4.15797 0.285974 0 0L0 0.000905991C0.866093 2.71629 3.5143 4.57648 6.47662 4.33046Z" fill="#FFFFFF" transform="translate(31.191 3.715)" />
              <path d="M6.77363 9.56514C10.2171 9.27916 12.7773 6.25602 12.4913 2.81253C12.455 2.37948 12.376 1.96005 12.258 1.55788C8.33695 1.04766 4.51307 0.496596 0.959738 0C0.262506 1.10758 -0.0951877 2.44212 0.0219254 3.84748L0.021018 3.84748C0.306992 7.29097 3.33014 9.85111 6.77363 9.56514Z" fill="#FFFFFF" transform="translate(4.601 0.663)" />
              <path d="M46.0454 5.36813C47.4035 6.40944 48.2124 7.61507 48.3232 8.94508C48.7526 14.1217 38.4921 19.1984 25.4054 20.2851C12.3187 21.3709 1.36087 18.0554 0.931457 12.8788C0.820699 11.5488 1.42079 10.2261 2.58829 8.97503C1.79301 7.70949 1.27916 6.24149 1.14753 4.64912C1.0168 3.07308 1.27463 1.55515 1.8384 0.186109C1.19655 0.114388 0.583749 0.0526555 0 0L0 22.9523C0 25.2465 1.86019 27.1067 4.15433 27.1067L44.6464 27.1067C46.9405 27.1067 48.8007 25.2465 48.8007 22.9523L48.8007 3.29097C48.0853 3.41625 47.3454 3.52247 46.5865 3.61325L46.5847 3.61325C46.4594 4.21879 46.2796 4.80708 46.0454 5.36813Z" fill="#FFFFFF" />
            </g>
            <path d="M0.1 0.109848C0.055 0.072628 0.03 0.0363159 0 0C0.03 0.0689964 0.1 0.109848 0.1 0.109848Z" fill="#FFFFFF" transform="translate(0 44.604)" />
          </g>
          <path d="M31.2342 7.40588C31.3913 7.32871 31.4566 7.12898 31.207 6.75404L27.2978 0.347322C27.1934 0.173922 26.852 -0.0466862 26.6568 0.0086937C24.7013 0.566114 13.9296 2.38908 2.03312 3.14532C1.7308 3.16439 1.39581 3.41133 1.28414 3.69276C0.587816 5.44764 -0.0794563 9.316 0.00769806 11.3142C0.0204067 11.602 0.354498 11.9288 0.642286 11.946L0.643194 11.947C4.02222 12.1421 21.6791 12.1149 31.2342 7.40588Z" fill="#FFFFFF" transform="translate(19.618 22.67)" />
        </g>
      </g>
    </g>
  </g>
</svg>